<svg width="324" height="308" viewBox="0 0 324 308" fill="none" xmlns="http://www.w3.org/2000/svg">
<rect width="324" height="308" fill="#FDFEF0"/>
<path d="M75.3555 171.547H68.207L66.6016 176H64.2812L70.7969 158.938H72.7656L79.293 176H76.9844L75.3555 171.547ZM68.8867 169.695H74.6875L71.7812 161.715L68.8867 169.695ZM83.3008 163.32L83.3711 164.914C84.3398 163.695 85.6055 163.086 87.168 163.086C89.8477 163.086 91.1992 164.598 91.2227 167.621V176H89.0547V167.609C89.0469 166.695 88.8359 166.02 88.4219 165.582C88.0156 165.145 87.3789 164.926 86.5117 164.926C85.8086 164.926 85.1914 165.113 84.6602 165.488C84.1289 165.863 83.7148 166.355 83.418 166.965V176H81.25V163.32H83.3008ZM96.8477 176H94.6797V163.32H96.8477V176ZM94.5039 159.957C94.5039 159.605 94.6094 159.309 94.8203 159.066C95.0391 158.824 95.3594 158.703 95.7812 158.703C96.2031 158.703 96.5234 158.824 96.7422 159.066C96.9609 159.309 97.0703 159.605 97.0703 159.957C97.0703 160.309 96.9609 160.602 96.7422 160.836C96.5234 161.07 96.2031 161.188 95.7812 161.188C95.3594 161.188 95.0391 161.07 94.8203 160.836C94.6094 160.602 94.5039 160.309 94.5039 159.957ZM102.367 163.32L102.426 164.727C103.355 163.633 104.609 163.086 106.188 163.086C107.961 163.086 109.168 163.766 109.809 165.125C110.23 164.516 110.777 164.023 111.449 163.648C112.129 163.273 112.93 163.086 113.852 163.086C116.633 163.086 118.047 164.559 118.094 167.504V176H115.926V167.633C115.926 166.727 115.719 166.051 115.305 165.605C114.891 165.152 114.195 164.926 113.219 164.926C112.414 164.926 111.746 165.168 111.215 165.652C110.684 166.129 110.375 166.773 110.289 167.586V176H108.109V167.691C108.109 165.848 107.207 164.926 105.402 164.926C103.98 164.926 103.008 165.531 102.484 166.742V176H100.316V163.32H102.367ZM129.203 176C129.078 175.75 128.977 175.305 128.898 174.664C127.891 175.711 126.688 176.234 125.289 176.234C124.039 176.234 123.012 175.883 122.207 175.18C121.41 174.469 121.012 173.57 121.012 172.484C121.012 171.164 121.512 170.141 122.512 169.414C123.52 168.68 124.934 168.312 126.754 168.312H128.863V167.316C128.863 166.559 128.637 165.957 128.184 165.512C127.73 165.059 127.062 164.832 126.18 164.832C125.406 164.832 124.758 165.027 124.234 165.418C123.711 165.809 123.449 166.281 123.449 166.836H121.27C121.27 166.203 121.492 165.594 121.938 165.008C122.391 164.414 123 163.945 123.766 163.602C124.539 163.258 125.387 163.086 126.309 163.086C127.77 163.086 128.914 163.453 129.742 164.188C130.57 164.914 131 165.918 131.031 167.199V173.035C131.031 174.199 131.18 175.125 131.477 175.812V176H129.203ZM125.605 174.348C126.285 174.348 126.93 174.172 127.539 173.82C128.148 173.469 128.59 173.012 128.863 172.449V169.848H127.164C124.508 169.848 123.18 170.625 123.18 172.18C123.18 172.859 123.406 173.391 123.859 173.773C124.312 174.156 124.895 174.348 125.605 174.348ZM137.371 160.25V163.32H139.738V164.996H137.371V172.859C137.371 173.367 137.477 173.75 137.688 174.008C137.898 174.258 138.258 174.383 138.766 174.383C139.016 174.383 139.359 174.336 139.797 174.242V176C139.227 176.156 138.672 176.234 138.133 176.234C137.164 176.234 136.434 175.941 135.941 175.355C135.449 174.77 135.203 173.938 135.203 172.859V164.996H132.895V163.32H135.203V160.25H137.371ZM147.543 176.234C145.824 176.234 144.426 175.672 143.348 174.547C142.27 173.414 141.73 171.902 141.73 170.012V169.613C141.73 168.355 141.969 167.234 142.445 166.25C142.93 165.258 143.602 164.484 144.461 163.93C145.328 163.367 146.266 163.086 147.273 163.086C148.922 163.086 150.203 163.629 151.117 164.715C152.031 165.801 152.488 167.355 152.488 169.379V170.281H143.898C143.93 171.531 144.293 172.543 144.988 173.316C145.691 174.082 146.582 174.465 147.66 174.465C148.426 174.465 149.074 174.309 149.605 173.996C150.137 173.684 150.602 173.27 151 172.754L152.324 173.785C151.262 175.418 149.668 176.234 147.543 176.234ZM147.273 164.867C146.398 164.867 145.664 165.188 145.07 165.828C144.477 166.461 144.109 167.352 143.969 168.5H150.32V168.336C150.258 167.234 149.961 166.383 149.43 165.781C148.898 165.172 148.18 164.867 147.273 164.867ZM154.48 169.555C154.48 167.609 154.941 166.047 155.863 164.867C156.785 163.68 157.992 163.086 159.484 163.086C160.969 163.086 162.145 163.594 163.012 164.609V158H165.18V176H163.188L163.082 174.641C162.215 175.703 161.008 176.234 159.461 176.234C157.992 176.234 156.793 175.633 155.863 174.43C154.941 173.227 154.48 171.656 154.48 169.719V169.555ZM156.648 169.801C156.648 171.238 156.945 172.363 157.539 173.176C158.133 173.988 158.953 174.395 160 174.395C161.375 174.395 162.379 173.777 163.012 172.543V166.719C162.363 165.523 161.367 164.926 160.023 164.926C158.961 164.926 158.133 165.336 157.539 166.156C156.945 166.977 156.648 168.191 156.648 169.801ZM187.961 176H185.699L177.109 162.852V176H174.848V158.938H177.109L185.723 172.145V158.938H187.961V176ZM199.445 176C199.32 175.75 199.219 175.305 199.141 174.664C198.133 175.711 196.93 176.234 195.531 176.234C194.281 176.234 193.254 175.883 192.449 175.18C191.652 174.469 191.254 173.57 191.254 172.484C191.254 171.164 191.754 170.141 192.754 169.414C193.762 168.68 195.176 168.312 196.996 168.312H199.105V167.316C199.105 166.559 198.879 165.957 198.426 165.512C197.973 165.059 197.305 164.832 196.422 164.832C195.648 164.832 195 165.027 194.477 165.418C193.953 165.809 193.691 166.281 193.691 166.836H191.512C191.512 166.203 191.734 165.594 192.18 165.008C192.633 164.414 193.242 163.945 194.008 163.602C194.781 163.258 195.629 163.086 196.551 163.086C198.012 163.086 199.156 163.453 199.984 164.188C200.812 164.914 201.242 165.918 201.273 167.199V173.035C201.273 174.199 201.422 175.125 201.719 175.812V176H199.445ZM195.848 174.348C196.527 174.348 197.172 174.172 197.781 173.82C198.391 173.469 198.832 173.012 199.105 172.449V169.848H197.406C194.75 169.848 193.422 170.625 193.422 172.18C193.422 172.859 193.648 173.391 194.102 173.773C194.555 174.156 195.137 174.348 195.848 174.348ZM208.668 173.059L211.809 163.32H214.023L209.477 176H207.824L203.23 163.32H205.445L208.668 173.059ZM226.844 169.801C226.844 171.738 226.398 173.297 225.508 174.477C224.617 175.648 223.422 176.234 221.922 176.234C220.32 176.234 219.082 175.668 218.207 174.535L218.102 176H216.109V158H218.277V164.715C219.152 163.629 220.359 163.086 221.898 163.086C223.438 163.086 224.645 163.668 225.52 164.832C226.402 165.996 226.844 167.59 226.844 169.613V169.801ZM224.676 169.555C224.676 168.078 224.391 166.938 223.82 166.133C223.25 165.328 222.43 164.926 221.359 164.926C219.93 164.926 218.902 165.59 218.277 166.918V172.402C218.941 173.73 219.977 174.395 221.383 174.395C222.422 174.395 223.23 173.992 223.809 173.188C224.387 172.383 224.676 171.172 224.676 169.555ZM237.414 176C237.289 175.75 237.188 175.305 237.109 174.664C236.102 175.711 234.898 176.234 233.5 176.234C232.25 176.234 231.223 175.883 230.418 175.18C229.621 174.469 229.223 173.57 229.223 172.484C229.223 171.164 229.723 170.141 230.723 169.414C231.73 168.68 233.145 168.312 234.965 168.312H237.074V167.316C237.074 166.559 236.848 165.957 236.395 165.512C235.941 165.059 235.273 164.832 234.391 164.832C233.617 164.832 232.969 165.027 232.445 165.418C231.922 165.809 231.66 166.281 231.66 166.836H229.48C229.48 166.203 229.703 165.594 230.148 165.008C230.602 164.414 231.211 163.945 231.977 163.602C232.75 163.258 233.598 163.086 234.52 163.086C235.98 163.086 237.125 163.453 237.953 164.188C238.781 164.914 239.211 165.918 239.242 167.199V173.035C239.242 174.199 239.391 175.125 239.688 175.812V176H237.414ZM233.816 174.348C234.496 174.348 235.141 174.172 235.75 173.82C236.359 173.469 236.801 173.012 237.074 172.449V169.848H235.375C232.719 169.848 231.391 170.625 231.391 172.18C231.391 172.859 231.617 173.391 232.07 173.773C232.523 174.156 233.105 174.348 233.816 174.348ZM248.77 165.266C248.441 165.211 248.086 165.184 247.703 165.184C246.281 165.184 245.316 165.789 244.809 167V176H242.641V163.32H244.75L244.785 164.785C245.496 163.652 246.504 163.086 247.809 163.086C248.23 163.086 248.551 163.141 248.77 163.25V165.266Z" fill="#532BAA"/>
<line x1="244" y1="25" x2="283" y2="25" stroke="#56237D" stroke-width="4"/>
<line x1="244" y1="36" x2="283" y2="36" stroke="#56237D" stroke-width="4"/>
<line x1="244" y1="46" x2="283" y2="46" stroke="#56237D" stroke-width="4"/>
<path d="M55.375 40.8008C55.375 42.7383 54.9297 44.2969 54.0391 45.4766C53.1484 46.6484 51.9531 47.2344 50.4531 47.2344C48.8516 47.2344 47.6133 46.668 46.7383 45.5352L46.6328 47H44.6406V29H46.8086V35.7148C47.6836 34.6289 48.8906 34.0859 50.4297 34.0859C51.9688 34.0859 53.1758 34.668 54.0508 35.832C54.9336 36.9961 55.375 38.5898 55.375 40.6133V40.8008ZM53.207 40.5547C53.207 39.0781 52.9219 37.9375 52.3516 37.1328C51.7812 36.3281 50.9609 35.9258 49.8906 35.9258C48.4609 35.9258 47.4336 36.5898 46.8086 37.918V43.4023C47.4727 44.7305 48.5078 45.3945 49.9141 45.3945C50.9531 45.3945 51.7617 44.9922 52.3398 44.1875C52.918 43.3828 53.207 42.1719 53.207 40.5547ZM63.3789 47.2344C61.6602 47.2344 60.2617 46.6719 59.1836 45.5469C58.1055 44.4141 57.5664 42.9023 57.5664 41.0117V40.6133C57.5664 39.3555 57.8047 38.2344 58.2812 37.25C58.7656 36.2578 59.4375 35.4844 60.2969 34.9297C61.1641 34.3672 62.1016 34.0859 63.1094 34.0859C64.7578 34.0859 66.0391 34.6289 66.9531 35.7148C67.8672 36.8008 68.3242 38.3555 68.3242 40.3789V41.2812H59.7344C59.7656 42.5312 60.1289 43.543 60.8242 44.3164C61.5273 45.082 62.418 45.4648 63.4961 45.4648C64.2617 45.4648 64.9102 45.3086 65.4414 44.9961C65.9727 44.6836 66.4375 44.2695 66.8359 43.7539L68.1602 44.7852C67.0977 46.418 65.5039 47.2344 63.3789 47.2344ZM63.1094 35.8672C62.2344 35.8672 61.5 36.1875 60.9062 36.8281C60.3125 37.4609 59.9453 38.3516 59.8047 39.5H66.1562V39.3359C66.0938 38.2344 65.7969 37.3828 65.2656 36.7812C64.7344 36.1719 64.0156 35.8672 63.1094 35.8672ZM72.8945 34.3203L72.9648 35.9141C73.9336 34.6953 75.1992 34.0859 76.7617 34.0859C79.4414 34.0859 80.793 35.5977 80.8164 38.6211V47H78.6484V38.6094C78.6406 37.6953 78.4297 37.0195 78.0156 36.582C77.6094 36.1445 76.9727 35.9258 76.1055 35.9258C75.4023 35.9258 74.7852 36.1133 74.2539 36.4883C73.7227 36.8633 73.3086 37.3555 73.0117 37.9648V47H70.8438V34.3203H72.8945ZM87.625 41.1289L86.2656 42.5469V47H84.0977V29H86.2656V39.8867L87.4258 38.4922L91.375 34.3203H94.0117L89.0781 39.6172L94.5859 47H92.043L87.625 41.1289ZM98.6055 47H96.4375V34.3203H98.6055V47ZM96.2617 30.957C96.2617 30.6055 96.3672 30.3086 96.5781 30.0664C96.7969 29.8242 97.1172 29.7031 97.5391 29.7031C97.9609 29.7031 98.2812 29.8242 98.5 30.0664C98.7188 30.3086 98.8281 30.6055 98.8281 30.957C98.8281 31.3086 98.7188 31.6016 98.5 31.8359C98.2812 32.0703 97.9609 32.1875 97.5391 32.1875C97.1172 32.1875 96.7969 32.0703 96.5781 31.8359C96.3672 31.6016 96.2617 31.3086 96.2617 30.957ZM104.137 34.3203L104.207 35.9141C105.176 34.6953 106.441 34.0859 108.004 34.0859C110.684 34.0859 112.035 35.5977 112.059 38.6211V47H109.891V38.6094C109.883 37.6953 109.672 37.0195 109.258 36.582C108.852 36.1445 108.215 35.9258 107.348 35.9258C106.645 35.9258 106.027 36.1133 105.496 36.4883C104.965 36.8633 104.551 37.3555 104.254 37.9648V47H102.086V34.3203H104.137ZM123.156 47C123.031 46.75 122.93 46.3047 122.852 45.6641C121.844 46.7109 120.641 47.2344 119.242 47.2344C117.992 47.2344 116.965 46.8828 116.16 46.1797C115.363 45.4688 114.965 44.5703 114.965 43.4844C114.965 42.1641 115.465 41.1406 116.465 40.4141C117.473 39.6797 118.887 39.3125 120.707 39.3125H122.816V38.3164C122.816 37.5586 122.59 36.957 122.137 36.5117C121.684 36.0586 121.016 35.832 120.133 35.832C119.359 35.832 118.711 36.0273 118.188 36.418C117.664 36.8086 117.402 37.2812 117.402 37.8359H115.223C115.223 37.2031 115.445 36.5938 115.891 36.0078C116.344 35.4141 116.953 34.9453 117.719 34.6016C118.492 34.2578 119.34 34.0859 120.262 34.0859C121.723 34.0859 122.867 34.4531 123.695 35.1875C124.523 35.9141 124.953 36.918 124.984 38.1992V44.0352C124.984 45.1992 125.133 46.125 125.43 46.8125V47H123.156ZM119.559 45.3477C120.238 45.3477 120.883 45.1719 121.492 44.8203C122.102 44.4688 122.543 44.0117 122.816 43.4492V40.8477H121.117C118.461 40.8477 117.133 41.625 117.133 43.1797C117.133 43.8594 117.359 44.3906 117.812 44.7734C118.266 45.1562 118.848 45.3477 119.559 45.3477ZM135.766 43.6367C135.766 43.0508 135.543 42.5977 135.098 42.2773C134.66 41.9492 133.891 41.668 132.789 41.4336C131.695 41.1992 130.824 40.918 130.176 40.5898C129.535 40.2617 129.059 39.8711 128.746 39.418C128.441 38.9648 128.289 38.4258 128.289 37.8008C128.289 36.7617 128.727 35.8828 129.602 35.1641C130.484 34.4453 131.609 34.0859 132.977 34.0859C134.414 34.0859 135.578 34.457 136.469 35.1992C137.367 35.9414 137.816 36.8906 137.816 38.0469H135.637C135.637 37.4531 135.383 36.9414 134.875 36.5117C134.375 36.082 133.742 35.8672 132.977 35.8672C132.188 35.8672 131.57 36.0391 131.125 36.3828C130.68 36.7266 130.457 37.1758 130.457 37.7305C130.457 38.2539 130.664 38.6484 131.078 38.9141C131.492 39.1797 132.238 39.4336 133.316 39.6758C134.402 39.918 135.281 40.207 135.953 40.543C136.625 40.8789 137.121 41.2852 137.441 41.7617C137.77 42.2305 137.934 42.8047 137.934 43.4844C137.934 44.6172 137.48 45.5273 136.574 46.2148C135.668 46.8945 134.492 47.2344 133.047 47.2344C132.031 47.2344 131.133 47.0547 130.352 46.6953C129.57 46.3359 128.957 45.8359 128.512 45.1953C128.074 44.5469 127.855 43.8477 127.855 43.0977H130.023C130.062 43.8242 130.352 44.4023 130.891 44.832C131.438 45.2539 132.156 45.4648 133.047 45.4648C133.867 45.4648 134.523 45.3008 135.016 44.9727C135.516 44.6367 135.766 44.1914 135.766 43.6367ZM146.02 47.2344C144.301 47.2344 142.902 46.6719 141.824 45.5469C140.746 44.4141 140.207 42.9023 140.207 41.0117V40.6133C140.207 39.3555 140.445 38.2344 140.922 37.25C141.406 36.2578 142.078 35.4844 142.938 34.9297C143.805 34.3672 144.742 34.0859 145.75 34.0859C147.398 34.0859 148.68 34.6289 149.594 35.7148C150.508 36.8008 150.965 38.3555 150.965 40.3789V41.2812H142.375C142.406 42.5312 142.77 43.543 143.465 44.3164C144.168 45.082 145.059 45.4648 146.137 45.4648C146.902 45.4648 147.551 45.3086 148.082 44.9961C148.613 44.6836 149.078 44.2695 149.477 43.7539L150.801 44.7852C149.738 46.418 148.145 47.2344 146.02 47.2344ZM145.75 35.8672C144.875 35.8672 144.141 36.1875 143.547 36.8281C142.953 37.4609 142.586 38.3516 142.445 39.5H148.797V39.3359C148.734 38.2344 148.438 37.3828 147.906 36.7812C147.375 36.1719 146.656 35.8672 145.75 35.8672Z" fill="#D56222"/>
<path d="M7.42743 46.75L22 27.8197L36.5726 46.75H7.42743Z" fill="#532BAA" stroke="#FA7022"/>
</svg>
